<?xml version="1.0" encoding="UTF-8"?><svg xmlns="http://www.w3.org/2000/svg" xmlns:xlink="http://www.w3.org/1999/xlink" height="168.9" preserveAspectRatio="xMidYMid meet" version="1.0" viewBox="0.0 -0.1 466.6 168.9" width="466.6" zoomAndPan="magnify"><linearGradient gradientUnits="userSpaceOnUse" id="a" x1="233.315" x2="233.315" xlink:actuate="onLoad" xlink:show="other" xlink:type="simple" xmlns:xlink="http://www.w3.org/1999/xlink" y1="168.691" y2="0"><stop offset="0" stop-color="#8370de" stop-opacity="0"/><stop offset=".5" stop-color="#8370de"/><stop offset="1" stop-color="#8370de" stop-opacity="0"/></linearGradient><path d="M466.629,85.401v0.816c-0.364,0.014-0.75,0.031-1.146,0.05v-1.09 C465.884,85.258,466.264,85.332,466.629,85.401z M459.479,83.741v2.899c0.412-0.033,0.818-0.063,1.219-0.092v-2.48 C460.299,83.964,459.891,83.854,459.479,83.741z M453.474,81.853v5.384c0.432-0.053,0.863-0.103,1.293-0.151v-4.785 C454.339,82.157,453.908,82.007,453.474,81.853z M447.47,79.417v8.732c0.451-0.085,0.906-0.165,1.365-0.243v-7.878 C448.38,79.831,447.925,79.626,447.47,79.417z M441.465,76.256v13.368c0.462-0.15,0.946-0.291,1.439-0.429v-12.1 C442.421,76.823,441.942,76.543,441.465,76.256z M435.461,72.01v22.883c0.429-0.877,0.916-1.753,1.512-2.52v-19.16 C436.461,72.824,435.956,72.424,435.461,72.01z M429.456,70.353v27.68c0.24,0.234,0.485,0.477,0.737,0.737 c0.306,0.316,0.586,0.551,0.849,0.726V69.615C430.49,69.72,429.963,69.99,429.456,70.353z M423.452,74.657v20.012 c0.489-0.064,1.041,0.016,1.658,0.243V74.356C424.559,74.693,424.01,74.837,423.452,74.657z M418.585,63.713 c-0.337-0.751-0.703-2.619-1.138-4.822v51.921c0.49-2.375,0.865-4.454,1.137-5.325c0.204-0.946,0.397-1.891,0.595-2.81V66.07 C418.985,65.339,418.787,64.559,418.585,63.713z M411.443,49.119v70.963c0.649,0.987,1.249,1.349,1.805,1.254V47.743 C412.704,47.701,412.105,48.111,411.443,49.119z M405.438,71.565v26.017c0.715,0.901,1.33,2.608,1.879,4.709V66.718 C406.768,68.882,406.156,70.646,405.438,71.565z M400.939,67.433c-0.522-1.527-1.021-3.174-1.505-4.873v43.955 c0.578-1.959,1.222-3.859,1.951-5.666v-32.33C401.24,68.18,401.091,67.824,400.939,67.433z M394.904,43.378 c-0.5-2.489-0.991-4.719-1.472-6.711v95.825c0.481-1.981,0.971-4.198,1.472-6.669c0.188-0.788,0.37-1.593,0.552-2.405V45.981 C395.267,45.096,395.082,44.222,394.904,43.378z M387.427,22.829v123.562c0.679-0.293,1.377-1.043,2.098-2.318V25.112 C388.805,23.851,388.106,23.113,387.427,22.829z M381.423,31.34v106.5c0.706,2.196,1.427,4.09,2.17,5.546V25.836 C382.849,27.282,382.127,29.162,381.423,31.34z M376.33,51.397c-0.313,1.084-0.608,2.211-0.912,3.348v59.735 c0.302,1.128,0.597,2.247,0.913,3.323c0.442,1.906,0.885,3.832,1.332,5.738V45.616C377.214,47.539,376.77,49.48,376.33,51.397z M370.758,65.662c-0.469,0.454-0.915,0.777-1.344,1.01v35.857c0.429,0.232,0.875,0.556,1.344,1.011 c0.353,0.432,0.67,0.891,0.972,1.36V64.301C371.428,64.771,371.111,65.23,370.758,65.662z M363.409,63.562v42.082 c0.78-1.081,1.561-2.056,2.391-2.707V66.269C364.97,65.619,364.188,64.643,363.409,63.562z M357.405,56.967v55.265 c0.891-0.364,1.702-1.023,2.463-1.843V58.809C359.108,57.989,358.296,57.33,357.405,56.967z M351.4,57.762v53.676 c0.841,0.34,1.688,0.636,2.537,0.836V56.925C353.089,57.126,352.243,57.422,351.4,57.762z M345.396,60.237v48.727 c0.86,0.254,1.73,0.602,2.609,0.985V59.25C347.127,59.634,346.256,59.981,345.396,60.237z M339.392,59.5v50.217 c0.876-0.647,1.771-0.987,2.684-1.108V60.6C341.161,60.482,340.265,60.145,339.392,59.5z M333.388,52.814v63.564 c0.874-0.693,1.792-1.644,2.756-2.871V55.692C335.18,54.463,334.261,53.509,333.388,52.814z M327.383,51.572v66.038 c0.887,0.358,1.827,0.495,2.83,0.318V51.257C329.209,51.078,328.27,51.214,327.383,51.572z M321.379,57.081v55.048 c0.908,1.117,1.868,2.296,2.902,3.307V53.755C323.247,54.771,322.287,55.957,321.379,57.081z M315.374,60.671v47.879 c0.985-0.727,1.963-0.481,2.977,0.301V60.379C317.337,61.164,316.36,61.409,315.374,60.671z M309.37,42.709v83.732 c1.082-5.616,2.087-9.671,3.049-12.511V55.246C311.458,52.395,310.454,48.331,309.37,42.709z M305.751,20.117 c-0.85-4.822-1.636-8.1-2.385-10.191v149.4c0.915-2.333,1.719-5.948,2.384-10.241c0.25-1.804,0.495-3.509,0.737-5.167V25.26 C306.246,23.609,306.001,21.913,305.751,20.117z M297.361,14.133v141.164c1.125,4.074,2.197,6.161,3.195,6.698V7.22 C299.504,8.049,298.467,10.723,297.361,14.133z M294.606,22.906c-1.138,0.479-2.217,0.661-3.249,0.611v121.611 c1.083,0.273,2.169,1.177,3.268,2.9V22.847C294.619,22.866,294.612,22.886,294.606,22.906z M285.354,20.419v128.456 c1.125-1.451,2.235-2.599,3.342-3.249V22.841C287.522,22.298,286.413,21.463,285.354,20.419z M279.35,12.279v145.786 c1.164-1.839,2.299-3.716,3.414-5.453V17.394C281.581,15.812,280.452,14.054,279.35,12.279z M273.345,3.289V166.01 c1.198-1.145,2.358-2.582,3.488-4.165V8.216C275.672,6.379,274.52,4.668,273.345,3.289z M267.341,0.054v168.603 c1.226,0.143,2.411-0.16,3.561-0.794V1C269.763,0.222,268.584-0.146,267.341,0.054z M261.336,5.181v159.195 c1.252,1.643,2.462,2.761,3.635,3.448V1.109C263.825,1.936,262.619,3.257,261.336,5.181z M255.332,17.383v135.585 c1.275,3.153,2.51,5.757,3.707,7.871V9.12C257.869,11.374,256.636,14.111,255.332,17.383z M249.327,34.718v100.158 c1.298,4.591,2.558,8.619,3.781,12.141V23.305C251.908,26.67,250.651,30.447,249.327,34.718z M243.323,52.761v64.865 c1.154,2.999,2.43,6.416,3.854,10.319V41.458C245.958,45.098,244.658,49.036,243.323,52.761z M237.318,66.153v37.451 c1.072,2.027,2.358,4.888,3.928,8.753V58.249C239.936,61.491,238.614,64.276,237.318,66.153z M231.456,66.211 c-0.048-0.117-0.094-0.241-0.141-0.369v39.352c0.995-4.562,1.942-7.052,4-4.72v-32.19C233.955,69.143,232.652,68.657,231.456,66.211 z M225.383,41.265v84.721c1.8-3.494,3.011-7.507,3.928-11.336V56.688C228.316,51.044,227.216,44.683,225.383,41.265z M219.452,40.387v88.104c0.843,0.904,1.742,1.69,2.721,2.294c0.397-0.447,0.772-0.921,1.132-1.41V38.978 C222.231,38.494,220.966,38.849,219.452,40.387z M216.598,44.248c-1.01,1.52-1.978,3.669-3.077,5.756v69.82 c1.214,1.968,2.435,4.077,3.781,5.983V43.139C217.071,43.488,216.838,43.852,216.598,44.248z M207.59,56.511v56.521 c1.351,0.669,2.556,1.908,3.707,3.448V53.63C210.242,55.017,209.034,56.09,207.59,56.511z M203.594,56.075 c-0.623-0.188-1.27-0.52-1.936-0.959v58.621c1.334-0.852,2.535-1.236,3.635-1.248V56.615 C204.755,56.519,204.192,56.348,203.594,56.075z M195.728,49.451v70.196c0.147-0.196,0.289-0.381,0.438-0.581 c1.112-1.39,2.15-2.528,3.123-3.445V53.202C198.136,52.125,196.944,50.837,195.728,49.451z M189.796,42.569v84.313 c1.088-1.179,2.248-2.534,3.488-4.08V46.605C192.127,45.243,190.96,43.865,189.796,42.569z M183.865,37.078v95.021 c1.035-0.639,2.168-1.52,3.414-2.674V39.92C186.123,38.788,184.981,37.809,183.865,37.078z M177.934,36.26v96.612 c0.945,0.559,2.045,0.718,3.342,0.39v-97.4C180.109,35.56,178.989,35.648,177.934,36.26z M174.111,41.761 c-0.814,2.611-1.463,6.238-2.107,10.142v65.391c0.874,4.86,1.801,9.325,3.268,12.321V39.247 C174.869,39.963,174.481,40.793,174.111,41.761z M166.449,73.442c-0.129,0.092-0.254,0.147-0.376,0.186v21.947 c0.122,0.039,0.247,0.093,0.378,0.182c1.172,2.146,2.071,4.786,2.817,7.661V66.497C168.506,69.442,167.601,71.914,166.449,73.442z M163.197,69.715c-0.906-4.806-1.93-7.801-3.056-9.516v48.805c1.124-1.716,2.148-4.711,3.057-9.516 c0.02-0.049,0.042-0.109,0.064-0.165V69.9C163.24,69.836,163.217,69.77,163.197,69.715z M154.21,59.621v49.957 c1.063,0.803,2.081,1.321,3.049,1.336v-52.62C156.292,58.306,155.273,58.822,154.21,59.621z M148.278,65.192v38.802 c1.018,0.94,2.011,1.955,2.977,2.914V62.282C150.289,63.238,149.295,64.252,148.278,65.192z M142.348,68.772v31.656 c0.982,0.156,1.95,0.579,2.902,1.172V67.59C144.297,68.186,143.329,68.612,142.348,68.772z M136.732,66.217 c-0.107-0.12-0.211-0.229-0.316-0.341v37.445c0.104-0.111,0.208-0.219,0.314-0.339c0.845-0.979,1.684-1.648,2.516-2.066V68.292 C138.414,67.873,137.575,67.201,136.732,66.217z M130.485,64.09v41.02c0.795,0.623,1.698,0.85,2.756,0.514V63.572 C132.184,63.239,131.281,63.467,130.485,64.09z M124.554,76.625v15.908c0.946,2.191,1.777,4.787,2.684,7.099V69.544 C126.329,71.848,125.497,74.435,124.554,76.625z M118.623,81.356v6.487c0.988-0.403,1.846-0.341,2.609,0.061v-6.617 C120.469,81.696,119.611,81.761,118.623,81.356z M112.691,67.265v34.583c0.803-3.229,1.635-6.189,2.537-8.589V75.896 C114.33,73.484,113.497,70.508,112.691,67.265z M106.761,43.352v82.539c0.875-2.697,1.684-5.809,2.463-9.075V52.369 C108.444,49.127,107.635,46.036,106.761,43.352z M100.829,34.273v100.655c0.856-0.122,1.649-0.666,2.391-1.548V35.854 C102.477,34.961,101.684,34.406,100.829,34.273z M94.898,39.129v90.91c0.814,1.324,1.584,2.347,2.316,3.116V36.01 C96.482,36.777,95.712,37.8,94.898,39.129z M88.967,52.864v63.629c0.876,2.494,1.64,4.664,2.244,6.209V46.608 C90.615,48.177,89.849,50.363,88.967,52.864z M83.036,68.411v32.345c0.737,1.705,1.465,3.517,2.17,5.355V63.129 C84.501,64.941,83.773,66.728,83.036,68.411z M77.104,78.228v12.717c0.679,0.504,1.383,1.324,2.098,2.384V75.797 C78.485,76.866,77.781,77.703,77.104,78.228z M72.652,74.924c-0.569-2.285-1.041-4.654-1.479-7.049v33.445 c0.437-2.393,0.909-4.76,1.478-7.043c0.175-0.56,0.357-1.049,0.545-1.481v-16.33C73.008,76.018,72.826,75.51,72.652,74.924z M65.243,46.892v75.434c0.62,0.284,1.269-0.271,1.951-1.949V48.772C66.517,47.109,65.867,46.579,65.243,46.892z M59.312,69.786 v29.453c0.592,3.193,1.215,6.895,1.879,10.393V59.499C60.524,62.953,59.899,66.612,59.312,69.786z M53.381,80.929v7.343 c0.608-0.092,1.21,0.019,1.805,0.385v-8.112C54.591,80.91,53.989,81.021,53.381,80.929z M47.449,75.406v18.397 c0.574-0.828,1.153-1.618,1.732-2.332V77.734C48.602,77.022,48.023,76.233,47.449,75.406z M41.519,67.04v35.131 c0.539-0.566,1.093-1.26,1.658-2.035V69.078C42.611,68.302,42.057,67.607,41.519,67.04z M36.433,68.189 c-0.135,1.59-0.479,3.706-0.846,5.817v20.812c0.423,2.235,0.83,4.532,0.846,6.194c0.238,0.596,0.484,1.079,0.74,1.465V66.719 C36.917,67.106,36.671,67.591,36.433,68.189z M29.656,76.998v15.136c0.5-0.714,1.004-1.319,1.512-1.79V78.778 C30.65,78.297,30.147,77.696,29.656,76.998z M23.725,64.798v39.112c0.478-1.054,0.957-2.128,1.439-3.193V68.15 C24.681,67.027,24.202,65.898,23.725,64.798z M17.794,55.353v58.426c0.454-0.322,0.909-0.789,1.365-1.37v-55.95 C18.712,55.968,18.258,55.591,17.794,55.353z M11.862,60.715v46.263c0.31,1.4,0.714,2.741,1.293,3.977V57.852 C12.601,58.746,12.181,59.705,11.862,60.715z M5.932,79.315v9.056c0.451,0.4,0.852,0.828,1.219,1.275V77.968 C6.787,78.433,6.383,78.882,5.932,79.315z M0,82.84v2.551c0.398,0.104,0.779,0.217,1.146,0.338v-3.347 C0.78,82.541,0.397,82.693,0,82.84z" fill="url(#a)"/></svg>